<svg width="25" height="23" viewBox="0 0 25 23" fill="none" xmlns="http://www.w3.org/2000/svg">
<ellipse cx="12.3542" cy="11.5" rx="11.9792" ry="11.5" fill="#C0EB6A"/>
<path d="M14.9583 18.6651C14.9583 19.7697 14.0256 20.6651 12.875 20.6651C11.7244 20.6651 10.7917 19.7697 10.7917 18.6651C10.7917 17.5605 11.7244 18.1651 12.875 18.1651C14.0256 18.1651 14.9583 17.5605 14.9583 18.6651Z" fill="#44001A"/>
<ellipse cx="12.875" cy="5" rx="2.08333" ry="2" fill="#44001A"/>
<path d="M12.1495 5C13.9329 5 11.9594 5 13.9167 5C19.881 5.00001 15.0256 17 20.6308 17C25.1977 17 1.05849 17 4.97298 17C10.5782 17 5.62536 5 12.1495 5Z" fill="#44001A"/>
</svg>
