<svg width="333" height="524" viewBox="0 0 333 524" fill="none" xmlns="http://www.w3.org/2000/svg">
<path d="M64.4664 59.2009C64.4664 59.2009 83.6995 33.4686 101.2 24.143C118.934 14.6927 151.49 13.2448 151.49 13.2448" stroke="#FCFCFC"/>
<path d="M164.562 46.9951C164.562 46.9951 183.076 36.7879 196.094 35.9942C209.041 35.2047 228.562 42.9951 228.562 42.9951" stroke="#FCFCFC"/>
<path d="M286 8.81824C286 8.81824 302.004 10.3111 310.211 15.7264C319.256 21.6945 327 37.8182 327 37.8182" stroke="#44001A"/>
<path d="M227.395 230.306C227.395 230.306 227.474 247.616 221.5 256C214.952 265.19 196.395 270.306 196.395 270.306" stroke="#C0EB6A"/>
<path d="M73.5862 219C73.5862 219 78.3429 233.375 84.2046 240.823C91.0189 249.481 106.586 258 106.586 258" stroke="#C0EB6A"/>
<path d="M17.515 479.121C17.515 479.121 25.3938 455.453 21.5001 441C17.7909 427.232 0.514954 411.121 0.514954 411.121" stroke="black"/>
<path d="M293.536 517.813C293.536 517.813 313.324 504.681 318.536 491.5C323.661 478.54 318.536 455.813 318.536 455.813" stroke="#44001A"/>
</svg>
